<!--?xml version="1.0" standalone="no"?-->
              <svg id="sw-js-blob-svg" viewBox="0 0 100 100" xmlns="http://www.w3.org/2000/svg" version="1.1">
                    <defs> 
                        <linearGradient id="sw-gradient" x1="0" x2="1" y1="1" y2="0">
                            <stop id="stop1" stop-color="rgba(17, 130, 178, 0.611764705882353)" offset="0%"></stop>
                            <stop id="stop2" stop-color="rgba(68, 68, 155, 0.611764705882353)" offset="100%"></stop>
                        </linearGradient>
                    </defs>
                <path fill="url(#sw-gradient)" d="M16,-25.8C20.2,-25.2,22.8,-19.9,26.5,-14.8C30.2,-9.8,34.9,-4.9,33,-1.1C31.1,2.7,22.4,5.3,18.1,9.3C13.8,13.2,13.7,18.5,11.4,22.2C9.1,25.9,4.6,28.1,-0.4,28.9C-5.5,29.7,-10.9,29,-17.7,27.9C-24.4,26.7,-32.4,25,-33,20.3C-33.5,15.6,-26.5,7.8,-25.1,0.8C-23.8,-6.2,-28,-12.4,-27.7,-17.6C-27.4,-22.7,-22.6,-26.8,-17.3,-26.7C-11.9,-26.6,-5.9,-22.3,0,-22.3C5.9,-22.2,11.7,-26.3,16,-25.8Z" width="100%" height="100%" transform="translate(50 50)" style="transition: all 0.3s ease 0s;" stroke-width="0"></path>
              </svg>